<?xml version="1.0" encoding="UTF-8"?>
<!DOCTYPE svg PUBLIC "-//W3C//DTD SVG 1.1//EN" "http://www.w3.org/Graphics/SVG/1.1/DTD/svg11.dtd">
<!-- Creator: CorelDRAW 2019 (64-Bit) -->
<svg xmlns="http://www.w3.org/2000/svg" xml:space="preserve" width="112px" height="112px" version="1.1" style="shape-rendering:geometricPrecision; text-rendering:geometricPrecision; image-rendering:optimizeQuality; fill-rule:evenodd; clip-rule:evenodd"
viewBox="0 0 138.64 138.64"
 xmlns:xlink="http://www.w3.org/1999/xlink"
 xmlns:xodm="http://www.corel.com/coreldraw/odm/2003">
 <defs>
  <style type="text/css">
   <![CDATA[
    .str0 {stroke:#048657;stroke-width:0.65;stroke-miterlimit:22.9256}
    .fil0 {fill:none}
    .fil1 {fill:#048657}
    .fil3 {fill:#048657}
    .fil2 {fill:white}
   ]]>
  </style>
    <clipPath id="id0">
     <path d="M69.32 0l0 0c38.13,0 69.32,31.19 69.32,69.32l0 0c0,38.13 -31.19,69.32 -69.32,69.32l0 0c-38.13,0 -69.32,-31.19 -69.32,-69.32l0 0c0,-38.13 31.19,-69.32 69.32,-69.32z"/>
    </clipPath>
    <clipPath id="id1">
     <path d="M69.32 0l0 0c38.13,0 69.32,31.19 69.32,69.32l0 0c0,38.13 -31.19,69.32 -69.32,69.32l0 0c-38.13,0 -69.32,-31.19 -69.32,-69.32l0 0c0,-38.13 31.19,-69.32 69.32,-69.32z"/>
    </clipPath>
 </defs>
 <g id="Layer_x0020_1">
  <metadata id="CorelCorpID_0Corel-Layer"/>
  <g id="_1949029058112">
   <path class="fil0" d="M69.32 0l0 0c38.13,0 69.32,31.19 69.32,69.32l0 0c0,38.13 -31.19,69.32 -69.32,69.32l0 0c-38.13,0 -69.32,-31.19 -69.32,-69.32l0 0c0,-38.13 31.19,-69.32 69.32,-69.32z"/>
   <path id="1" class="fil1" d="M69.32 0l0 0c38.13,0 69.32,31.19 69.32,69.32l0 0c0,38.13 -31.19,69.32 -69.32,69.32l0 0c-38.13,0 -69.32,-31.19 -69.32,-69.32l0 0c0,-38.13 31.19,-69.32 69.32,-69.32z"/>
   <g style="clip-path:url(#id0)">
   </g>
   <g style="clip-path:url(#id1)">
    <path id="2" class="fil0 str0" d="M0 0l138.64 138.64m0 -138.64l-138.64 138.64"/>
   </g>
   <path class="fil2" d="M90.34 3.28c1,0.33 1.98,0.66 2.97,1.02 4.29,31.97 18.83,50.86 45.1,59.27 0.23,5.32 0.2,5.36 0.06,10.72 -26.46,8.45 -41.14,27.78 -45.36,60.12 -0.93,0.37 -1.75,0.62 -2.71,0.94 -5.9,-47.95 -32.85,-66.29 -90.4,-66.29 57.34,0 84.31,-18.23 90.34,-65.78z"/>
   <path id="Path-2-Copy-6" class="fil3" d="M56.37 71.9l4.79 -5.45 17.03 0 10.46 13.35 27.38 -37.94c1.63,1.46 3.15,3.13 4.56,5 1.42,1.88 2.64,3.88 3.68,6.01l-33.62 46.51c-0.63,0.67 -1.3,1 -2,1 -0.7,0 -1.41,-0.33 -2.12,-1l-21.25 -27.48 -8.91 0z"/>
  </g>
 </g>
</svg>
